#!OML:ASF \\sashay\E\basketball\basketball\Project 1\Capture day 1\Session 1\Subject.ASF
:FULLY-SPECIFIED
:DEGREES
506
root 21.4641 12.5502 -2.99535 -172.356 -9.98683 -175.599
lowerback 49.1232 -0.968202 5.94199
upperback 11.8546 -3.76652 0.593702
thorax -7.1594 -3.81462 -0.323979
lowerneck -8.29616 1.66699 -13.3571
upperneck -36.7191 -0.106101 14.2571
head -10.4743 -2.8494 8.43802
rclavicle 1.59028e-014 -3.77691e-014
rhumerus 22.5584 2.56593 -74.0905
rradius 46.3177
rwrist -19.6492
rhand -38.9037 47.7393
rfingers 7.12502
rthumb -11.9108 18.0981
lclavicle 1.59028e-014 -3.77691e-014
lhumerus -16.3865 15.2798 79.484
lradius 78.9171
lwrist 28.6619
lhand -27.5202 9.19249
lfingers 7.12502
lthumb -0.922475 39.1702
rfemur -51.0704 -23.567 8.22818
rtibia 76.433
rfoot -21.831 -11.0774
rtoes -52.5636
lfemur -69.4416 27.166 -11.7754
ltibia 84.3533
lfoot -11.7744 -5.80586
ltoes -3.48209
507
root 21.3933 12.5422 -2.9992 -172.38 -10.1337 -175.623
lowerback 48.9028 -1.04095 6.16622
upperback 12.0546 -3.82262 0.400708
thorax -6.91811 -3.83272 -0.634238
lowerneck -8.51665 1.63416 -13.5435
upperneck -36.8793 -0.0719448 14.6968
head -10.4956 -2.88314 8.66831
rclavicle 1.59028e-015 -2.54444e-014
rhumerus 22.8823 3.58376 -73.21
rradius 45.5138
rwrist -18.726
rhand -38.0762 46.8415
rfingers 7.12502
rthumb -11.1127 17.1557
lclavicle 1.59028e-015 -2.54444e-014
lhumerus -15.9119 14.815 78.7825
lradius 78.8354
lwrist 28.4992
lhand -27.6636 9.084
lfingers 7.12502
lthumb -1.06103 39.0611
rfemur -50.7008 -23.725 7.8089
rtibia 76.1607
rfoot -21.4687 -11.5201
rtoes -53.2314
lfemur -69.768 27.3321 -12.2639
ltibia 84.8124
lfoot -11.8025 -6.15012
ltoes -3.09186
508
root 21.3179 12.5322 -3.00436 -172.426 -10.2063 -175.618
lowerback 48.8675 -1.08221 6.28578
upperback 12.0689 -3.82118 0.223485
thorax -6.9094 -3.81494 -0.882879
lowerneck -8.55856 1.60211 -13.5946
upperneck -36.9238 -0.0194878 15.1026
head -10.5017 -2.8999 8.84719
rclavicle -1.82882e-014 1.55052e-014
rhumerus 22.9383 4.79444 -72.2679
rradius 44.8418
rwrist -18.1877
rhand -37.3056 46.3211
rfingers 7.12502
rthumb -10.3695 16.5967
lclavicle -1.82882e-014 1.55052e-014
lhumerus -15.7553 14.4693 77.8029
lradius 78.8816
lwrist 28.5066
lhand -27.5767 8.91935
lfingers 7.12502
lthumb -0.977121 38.8969
rfemur -50.3208 -23.7867 7.37638
rtibia 75.8595
rfoot -21.2586 -11.496
rtoes -53.4742
lfemur -70.1015 27.6349 -12.7487
ltibia 85.319
lfoot -11.7249 -6.57856
ltoes -2.95547
509
root 21.2355 12.5232 -3.00976 -172.528 -10.2359 -175.554
lowerback 48.9309 -1.04117 6.23769
upperback 12.0154 -3.7741 0.18024
thorax -6.98051 -3.78747 -0.920314
lowerneck -8.72542 1.6376 -13.3072
upperneck -36.6039 0.0672935 14.9784
head -10.3538 -2.84838 8.69069
rclavicle 2.22639e-014 -2.82274e-014
rhumerus 22.9742 6.24728 -71.1105
rradius 44.271
rwrist -18.1958
rhand -36.2193 46.2591
rfingers 7.12502
rthumb -9.3214 16.4852
lclavicle 2.22639e-014 -2.82274e-014
lhumerus -15.706 14.4198 76.922
lradius 79.044
lwrist 28.28
lhand -27.544 8.47771
lfingers 7.12502
lthumb -0.945456 38.4554
rfemur -49.8739 -23.8934 6.97534
rtibia 75.4858
rfoot -21.0233 -11.3169
rtoes -53.654
lfemur -70.4281 28.016 -13.2326
ltibia 85.8941
lfoot -11.6846 -6.93427
ltoes -3.44212
510
root 21.1474 12.5176 -3.01713 -172.651 -10.2417 -175.379
lowerback 48.8961 -0.91791 6.1265
upperback 12.0439 -3.684 0.268181
thorax -6.9349 -3.75672 -0.814882
lowerneck -8.95705 1.64966 -13.0224
upperneck -36.235 0.075018 14.658
head -10.1688 -2.80989 8.45127
rclavicle -6.12257e-014 1.19271e-015
rhumerus 23.1051 8.24188 -69.4804
rradius 43.8754
rwrist -17.3908
rhand -36.7305 45.4592
rfingers 7.12502
rthumb -9.81466 15.708
lclavicle -6.12257e-014 1.19271e-015
lhumerus -15.553 14.5751 76.2243
lradius 79.2731
lwrist 28.0674
lhand -27.867 7.88584
lfingers 7.12502
lthumb -1.25741 37.8619
rfemur -49.358 -23.991 6.69455
rtibia 75.0077
rfoot -20.6021 -11.5497
rtoes -54.2214
lfemur -70.8186 28.6023 -13.7205
ltibia 86.515
lfoot -11.7159 -7.27603
ltoes -5.61558
511
root 21.0615 12.5143 -3.02137 -172.67 -10.2995 -175.126
lowerback 48.6201 -0.792834 6.24092
upperback 12.1403 -3.48833 0.299805
thorax -6.77595 -3.66138 -0.933348
lowerneck -9.12814 1.59346 -12.9634
upperneck -36.2571 0.0235711 14.7965
head -10.1337 -2.86163 8.49494
rclavicle 2.94201e-014 3.18055e-014
rhumerus 23.1213 9.59401 -67.9797
rradius 43.5176
rwrist -16.668
rhand -36.0524 45.4388
rfingers 7.12502
rthumb -9.16039 15.6578
lclavicle 2.94201e-014 3.18055e-014
lhumerus -15.3452 14.309 75.2609
lradius 79.6059
lwrist 27.998
lhand -28.0437 7.66071
lfingers 7.12502
lthumb -1.42813 37.6357
rfemur -48.9297 -23.9531 6.56231
rtibia 74.4581
rfoot -20.1338 -11.8425
rtoes -54.7041
lfemur -71.3307 29.1056 -14.0807
ltibia 87.0949
lfoot -11.5452 -7.7173
ltoes -7.45929
512
root 20.9561 12.5163 -3.02827 -172.987 -10.6338 -174.879
lowerback 48.6408 -0.987035 6.78758
upperback 12.2296 -3.50041 0.162219
thorax -6.67998 -3.65595 -1.33456
lowerneck -9.20853 1.57771 -12.7896
upperneck -36.2788 0.0497327 14.9607
head -10.1246 -2.88765 8.52703
rclavicle -2.70347e-014 7.95139e-015
rhumerus 23.0413 10.6028 -66.9633
rradius 43.0953
rwrist -15.7214
rhand -35.3463 46.0063
rfingers 7.12502
rthumb -8.47901 16.1965
lclavicle -2.70347e-014 7.95139e-015
lhumerus -15.1085 14.0076 74.0709
lradius 79.9827
lwrist 27.9077
lhand -28.0543 7.56568
lfingers 7.12502
lthumb -1.43832 37.5406
rfemur -47.938 -24.2554 6.12983
rtibia 73.7975
rfoot -19.9434 -11.4907
rtoes -54.7938
lfemur -71.3783 28.7855 -14.1978
ltibia 87.6793
lfoot -11.3846 -7.86744
ltoes -7.31599
513
root 20.8444 12.5201 -3.03802 -173.445 -10.8971 -174.614
lowerback 48.846 -1.10675 7.29059
upperback 12.3047 -3.45154 0.0317606
thorax -6.62186 -3.63268 -1.72292
lowerneck -9.35899 1.47332 -12.7536
upperneck -36.1755 0.00711513 15.2501
head -10.0371 -2.92406 8.6172
rclavicle -1.03368e-014 -1.31198e-014
rhumerus 22.815 11.4082 -66.1438
rradius 42.8043
rwrist -14.596
rhand -35.1653 46.6152
rfingers 7.12502
rthumb -8.30429 16.7984
lclavicle -1.03368e-014 -1.31198e-014
lhumerus -14.7669 13.5794 72.9006
lradius 80.3426
lwrist 28.0504
lhand -28.4285 7.13281
lfingers 7.12502
lthumb -1.79981 37.105
rfemur -46.7373 -24.5463 5.64968
rtibia 72.9913
rfoot -19.6819 -11.1643
rtoes -54.9778
lfemur -71.2523 28.6413 -14.3519
ltibia 88.2656
lfoot -11.3175 -8.01225
ltoes -7.10925
514
root 20.7498 12.5055 -3.04869 -172.947 -10.6964 -174.309
lowerback 46.8513 -0.558476 7.01563
upperback 13.3775 -3.02583 0.182297
thorax -6.28676 -3.38551 -1.84188
lowerneck -9.57399 1.29959 -12.8598
upperneck -35.9631 -0.118456 15.5192
head -9.88165 -2.96351 8.7099
rclavicle -1.43125e-014 7.15625e-015
rhumerus 22.3773 12.0477 -65.3283
rradius 42.8019
rwrist -13.5589
rhand -34.8931 47.1715
rfingers 7.12502
rthumb -8.0416 17.3445
lclavicle -1.43125e-014 7.15625e-015
lhumerus -14.5459 13.0856 71.6102
lradius 80.8537
lwrist 28.1707
lhand -28.437 7.15173
lfingers 7.12502
lthumb -1.80795 37.1238
rfemur -47.0386 -24.4778 5.8385
rtibia 72.3615
rfoot -19.0914 -11.326
rtoes -55.3868
lfemur -72.5727 29.7527 -15.1353
ltibia 88.9424
lfoot -10.9101 -8.72331
ltoes -6.68458
515
root 20.6156 12.5261 -3.06326 -173.786 -11.1394 -173.956
lowerback 48.4836 -1.00016 7.63549
upperback 12.387 -3.15701 0.0231462
thorax -6.45307 -3.47623 -2.0352
lowerneck -9.79439 1.26154 -12.9705
upperneck -35.6414 -0.0594755 15.7232
head -9.71689 -2.90257 8.76296
rclavicle 1.90833e-014 1.23246e-014
rhumerus 21.7958 12.8703 -64.7079
rradius 43.0696
rwrist -12.703
rhand -34.5112 47.8362
rfingers 7.12502
rthumb -7.67303 17.9954
lclavicle 1.90833e-014 1.23246e-014
lhumerus -14.6961 13.1503 70.0717
lradius 81.6245
lwrist 28.1074
lhand -27.6475 7.84911
lfingers 7.12502
lthumb -1.04543 37.8263
rfemur -45.0789 -24.905 5.16477
rtibia 71.2742
rfoot -18.664 -11.2126
rtoes -55.7546
lfemur -71.8581 29.1873 -15.0099
ltibia 89.4491
lfoot -10.8293 -8.71301
ltoes -4.53377
516
root 20.5079 12.5302 -3.075 -173.742 -11.1192 -173.546
lowerback 47.0087 -0.709579 7.48913
upperback 13.3951 -3.01215 0.0294227
thorax -6.30518 -3.36929 -2.2423
lowerneck -9.95626 1.20252 -12.9977
upperneck -35.3985 0.00396874 16.1559
head -9.58637 -2.88473 8.90397
rclavicle 1.90833e-014 3.53837e-014
rhumerus 20.9376 13.2147 -64.7077
rradius 43.4387
rwrist -11.7558
rhand -34.1958 48.8203
rfingers 7.12502
rthumb -7.36861 18.9686
lclavicle 1.90833e-014 3.53837e-014
lhumerus -14.809 12.9429 68.0761
lradius 82.3335
lwrist 28.1958
lhand -27.2017 8.1047
lfingers 7.12502
lthumb -0.614928 38.0836
rfemur -44.5216 -24.7716 5.17259
rtibia 70.35
rfoot -18.081 -11.328
rtoes -55.9479
lfemur -72.4075 29.9385 -15.4323
ltibia 89.9491
lfoot -10.302 -9.26761
ltoes -2.08014
517
root 20.3784 12.5451 -3.09895 -174.111 -11.2286 -173.275
lowerback 46.9039 -0.552173 7.38863
upperback 13.4631 -2.88581 0.122679
thorax -6.18977 -3.32258 -2.15382
lowerneck -10.002 1.08904 -13.3104
upperneck -35.329 -0.0435257 16.5613
head -9.5296 -2.89489 9.11487
rclavicle -1.27222e-014 -2.10712e-014
rhumerus 20.1279 13.1052 -65.0527
rradius 43.5299
rwrist -10.3498
rhand -34.293 49.8778
rfingers 7.12502
rthumb -7.46236 20.0294
lclavicle -1.27222e-014 -2.10712e-014
lhumerus -14.9825 12.6141 66.4927
lradius 82.8869
lwrist 27.78
lhand -27.6993 7.5313
lfingers 7.12502
lthumb -1.0955 37.5082
rfemur -43.1772 -24.926 4.68032
rtibia 69.1402
rfoot -17.6061 -11.1301
rtoes -56.1409
lfemur -72.1919 30.1437 -15.7985
ltibia 90.3896
lfoot -10.3586 -9.38775
ltoes -1.48264
518
root 20.2482 12.5661 -3.12705 -174.304 -11.3093 -172.925
lowerback 46.6157 -0.335804 7.15928
upperback 13.3817 -2.65614 0.38842
thorax -6.18742 -3.21736 -1.86001
lowerneck -9.72373 0.876353 -13.9528
upperneck -35.1827 -0.179959 17.0279
head -9.4793 -2.88104 9.40899
rclavicle 8.74653e-015 3.57812e-015
rhumerus 18.9389 13.2492 -64.9347
rradius 44.0071
rwrist -9.81538
rhand -34.7424 50.7531
rfingers 7.12502
rthumb -7.89612 20.9205
lclavicle 8.74653e-015 3.57812e-015
lhumerus -15.4486 12.2789 65.0782
lradius 83.5199
lwrist 27.0953
lhand -28.4929 6.91665
lfingers 7.12502
lthumb -1.86198 36.8883
rfemur -42.0216 -25.0638 4.41285
rtibia 67.8651
rfoot -16.9538 -11.1961
rtoes -56.5563
lfemur -72.1628 30.5282 -16.2306
ltibia 90.7582
lfoot -10.8823 -9.49347
ltoes -4.97701
519
root 20.1081 12.5884 -3.15641 -174.316 -11.4948 -172.285
lowerback 45.9973 -0.180398 7.13457
upperback 13.2659 -2.36676 0.737666
thorax -6.13434 -3.06236 -1.61669
lowerneck -9.52969 0.620009 -14.5951
upperneck -34.8777 -0.342507 17.568
head -9.34132 -2.87177 9.70933
rclavicle 7.95139e-015 -5.96354e-015
rhumerus 17.4331 13.0475 -65.0908
rradius 44.6605
rwrist -9.71886
rhand -34.849 51.7345
rfingers 7.12502
rthumb -7.99899 21.9059
lclavicle 7.95139e-015 -5.96354e-015
lhumerus -15.9231 12.0861 63.4903
lradius 84.2924
lwrist 26.2636
lhand -28.2819 6.97979
lfingers 7.12502
lthumb -1.65813 36.9531
rfemur -41.0004 -25.1567 4.53141
rtibia 66.416
rfoot -16.1323 -11.2809
rtoes -56.8633
lfemur -72.4502 30.8448 -16.5392
ltibia 91.0867
lfoot -10.8282 -9.71961
ltoes 0.540741
